<svg xmlns="http://www.w3.org/2000/svg" width="50.53" height="38.74" viewBox="0 0 50.53 38.74">
  <g id="tracking" transform="translate(-2 -9)">
    <path id="Path_166" data-name="Path 166" d="M52.283,32.195,41.829,21.74A2.508,2.508,0,0,0,40.042,21H25.581v1.684h4.211V35.317h1.684V22.684h8.566a.842.842,0,0,1,.6.247l1.438,1.438H38.213a1.684,1.684,0,0,0-1.684,1.684v7.58a1.684,1.684,0,0,0,1.684,1.684H50.846v6.737A.842.842,0,0,1,50,42.9H48.252a5.888,5.888,0,0,0-11.656,0H24.671a5.888,5.888,0,0,0-11.656,0H11.264a.842.842,0,0,1-.842-.842v-7.58H8.737v7.58a2.527,2.527,0,0,0,2.527,2.527h1.752a5.877,5.877,0,0,0,1.71,3.369H2v1.684H42.424a5.9,5.9,0,0,0,5.828-5.053H50a2.527,2.527,0,0,0,2.527-2.527V32.79a.842.842,0,0,0-.247-.6ZM14.633,43.739a4.211,4.211,0,1,1,4.211,4.211A4.211,4.211,0,0,1,14.633,43.739Zm8.328,4.211a5.877,5.877,0,0,0,1.71-3.369H36.6a5.877,5.877,0,0,0,1.71,3.369Zm19.463,0a4.211,4.211,0,1,1,4.211-4.211,4.211,4.211,0,0,1-4.211,4.211ZM38.213,33.633v-7.58H43.76l7.086,7.086v.494Z" transform="translate(0 -1.894)" fill="#4a4a4a"/>
    <rect id="Rectangle_133" data-name="Rectangle 133" width="1.684" height="1.684" transform="translate(18.001 41.002)" fill="#4a4a4a"/>
    <rect id="Rectangle_134" data-name="Rectangle 134" width="1.684" height="1.684" transform="translate(41.582 41.002)" fill="#4a4a4a"/>
    <rect id="Rectangle_135" data-name="Rectangle 135" width="4.211" height="1.684" transform="translate(2 38.476)" fill="#4a4a4a"/>
    <rect id="Rectangle_136" data-name="Rectangle 136" width="2.527" height="1.684" transform="translate(3.684 35.107)" fill="#4a4a4a"/>
    <rect id="Rectangle_137" data-name="Rectangle 137" width="1.684" height="1.684" transform="translate(4.527 31.739)" fill="#4a4a4a"/>
    <path id="Path_167" data-name="Path 167" d="M12.948,30.9A10.948,10.948,0,1,0,2,19.948,10.948,10.948,0,0,0,12.948,30.9Zm0-20.212a9.264,9.264,0,1,1-9.264,9.264,9.264,9.264,0,0,1,9.264-9.264Z" transform="translate(0)" fill="#4a4a4a"/>
    <path id="Path_168" data-name="Path 168" d="M13.9,28.159a.842.842,0,0,0,.6-.247c.542-.542,5.3-5.4,5.3-9.017A5.9,5.9,0,1,0,8,18.9c0,3.613,4.757,8.475,5.3,9.017A.842.842,0,0,0,13.9,28.159Zm0-13.475A4.216,4.216,0,0,1,18.106,18.9c0,2.161-2.65,5.5-4.211,7.2-1.561-1.7-4.211-5.04-4.211-7.2A4.216,4.216,0,0,1,13.9,14.684Z" transform="translate(-0.947 -0.631)" fill="#4a4a4a"/>
    <path id="Path_169" data-name="Path 169" d="M17.053,19.527a2.527,2.527,0,1,0-2.527,2.527A2.527,2.527,0,0,0,17.053,19.527Zm-3.369,0a.842.842,0,1,1,.842.842A.842.842,0,0,1,13.684,19.527Z" transform="translate(-1.578 -1.263)" fill="#4a4a4a"/>
    <rect id="Rectangle_138" data-name="Rectangle 138" width="3.369" height="1.684" transform="translate(34.002 35.107)" fill="#4a4a4a"/>
  </g>
</svg>
