<svg xmlns="http://www.w3.org/2000/svg" width="46.691" height="38.934" viewBox="0 0 46.691 38.934">
  <g id="payment-method" transform="translate(0.002 0)">
    <path id="Path_170" data-name="Path 170" d="M43.248,0H6.883a3.444,3.444,0,0,0-3.44,3.44V18.453a12.05,12.05,0,1,0,20.63,9.279H43.248a3.444,3.444,0,0,0,3.44-3.44V3.44A3.444,3.444,0,0,0,43.248,0Zm-31.2,37.795A10.914,10.914,0,1,1,22.965,26.881,10.914,10.914,0,0,1,12.051,37.795Zm33.5-13.5a2.3,2.3,0,0,1-2.3,2.3H24.1A12.046,12.046,0,0,0,4.582,17.428V3.44a2.3,2.3,0,0,1,2.3-2.3H43.248a2.3,2.3,0,0,1,2.3,2.3Zm0,0" transform="translate(0 0)" fill="#4a4a4a"/>
    <path id="Path_171" data-name="Path 171" d="M309.522,167.358a4.243,4.243,0,0,0-1.847.421,4.263,4.263,0,1,0,0,7.684,4.263,4.263,0,1,0,1.847-8.1Zm-3.694,7.387a3.124,3.124,0,1,1,.711-6.165,4.254,4.254,0,0,0,0,6.083A3.117,3.117,0,0,1,305.829,174.745Zm3.124-3.124a3.121,3.121,0,0,1-1.277,2.518,3.12,3.12,0,0,1,0-5.036A3.122,3.122,0,0,1,308.953,171.621Zm.569,3.124a3.12,3.12,0,0,1-.711-.083,4.253,4.253,0,0,0,0-6.083,3.124,3.124,0,1,1,.711,6.165Zm0,0" transform="translate(-272.949 -151.476)" fill="#4a4a4a"/>
    <path id="Path_172" data-name="Path 172" d="M76.351,56H91.543a.569.569,0,0,0,0-1.139H76.351a.569.569,0,1,0,0,1.139Zm0,0" transform="translate(-68.592 -49.657)" fill="#4a4a4a"/>
    <path id="Path_173" data-name="Path 173" d="M259.832,54.863h-1.646a.569.569,0,0,0,0,1.139h1.646a.569.569,0,1,0,0-1.139Zm0,0" transform="translate(-233.172 -49.657)" fill="#4a4a4a"/>
    <path id="Path_174" data-name="Path 174" d="M77.06,85.117h-.71a.569.569,0,0,0,0,1.139h.71a.569.569,0,1,0,0-1.139Zm0,0" transform="translate(-68.592 -77.04)" fill="#4a4a4a"/>
    <path id="Path_175" data-name="Path 175" d="M115.712,85.117h-9.487a.569.569,0,1,0,0,1.139h9.487a.569.569,0,0,0,0-1.139Zm0,0" transform="translate(-95.632 -77.04)" fill="#4a4a4a"/>
    <path id="Path_176" data-name="Path 176" d="M232.453,85.117h-4.516a.569.569,0,1,0,0,1.139h4.516a.569.569,0,0,0,0-1.139Zm0,0" transform="translate(-205.793 -77.04)" fill="#4a4a4a"/>
    <path id="Path_177" data-name="Path 177" d="M76.677,246.082l-6.872,5.59-2.775-3.249a.569.569,0,0,0-.866.74l3.136,3.672a.569.569,0,0,0,.792.072l7.3-5.941a.569.569,0,1,0-.719-.883Zm0,0" transform="translate(-59.766 -222.613)" fill="#4a4a4a"/>
  </g>
</svg>
