<svg xmlns="http://www.w3.org/2000/svg" width="61.561" height="45" viewBox="0 0 61.561 45">
  <g id="delivery-truck" transform="translate(0 -68.867)">
    <g id="Group_4828" data-name="Group 4828" transform="translate(0 68.867)">
      <g id="Group_4827" data-name="Group 4827" transform="translate(0 0)">
        <path id="Path_12771" data-name="Path 12771" d="M49.838,83.254H45.962L47.13,69.847c0-.024,0-.048,0-.072,0,0,0,0,0-.006h0a.9.9,0,0,0-.544-.826l-.008,0c-.02-.008-.041-.016-.062-.023l-.023-.008-.052-.013-.036-.009-.047-.007-.044-.006h-.007l-.047,0-.032,0H27.776a.9.9,0,0,0,0,1.8H45.248L43.453,91.276v0L43,96.48H11.665l.524-5.41h5.966a.9.9,0,0,0,0-1.8H12.364l1.107-11.422h9.5a.9.9,0,0,0,0-1.8H13.645l.52-5.37h10a.9.9,0,0,0,0-1.8H13.346a.9.9,0,0,0-.88.711l0,.009c0,.022-.008.045-.011.069,0,.007,0,.014,0,.022v0l-.616,6.359H.9a.9.9,0,1,0,0,1.8H11.659L10.552,89.266H7.335a.9.9,0,1,0,0,1.8h3.043l-.6,6.219v0l-.932,9.616v.007c0,.013,0,.025,0,.037s0,.033,0,.05v0c0,.023,0,.046,0,.069,0,.007,0,.015,0,.022,0,.023.006.046.011.069,0,.007,0,.014,0,.02s.008.034.013.051.006.024.009.036l0,.01a.9.9,0,0,0,.214.353l.005.006.03.027a.9.9,0,0,0,.209.143l.048.023.015.006c.023.009.045.018.069.025l.006,0c.027.008.054.015.081.021l.011,0c.026,0,.053.009.079.012h0q.044,0,.088,0h4.016a6.864,6.864,0,0,0,13.61,0H41.83a6.864,6.864,0,0,0,13.61,0h4.017c.03,0,.06,0,.089,0l.016,0c.023,0,.047-.006.07-.011l.029-.007.053-.014.035-.012.044-.016.037-.016.039-.019.036-.019.037-.022.033-.022.036-.027.029-.024.036-.033.025-.024.036-.04.019-.022c.013-.016.025-.033.037-.05l.013-.017c.015-.022.028-.045.041-.068l0,0c.014-.025.026-.051.037-.077l.009-.023c.007-.019.015-.037.021-.057s.007-.025.01-.038.008-.03.012-.045,0-.028.007-.041,0-.024.006-.036c.038-.306.744-5.972,1.06-9.635,0,0,0-.007,0-.011.091-1.056.149-1.945.149-2.49A11.736,11.736,0,0,0,49.838,83.254Zm-4.033,1.8h3.689l-.471,5.41H45.334ZM20.561,112.063A5.062,5.062,0,1,1,25.624,107,5.068,5.068,0,0,1,20.561,112.063Zm28.074,0A5.062,5.062,0,1,1,53.7,107,5.068,5.068,0,0,1,48.635,112.063ZM58.659,106.1H55.44a6.864,6.864,0,0,0-13.61,0H27.366a6.864,6.864,0,0,0-13.61,0H10.733l.757-7.816H43.827a.885.885,0,0,0,.09,0l.016,0c.024,0,.047-.006.07-.011l.03-.007.054-.014.035-.012.045-.016L44.2,98.2l.04-.019.036-.02.037-.022.034-.023.035-.026.031-.026.033-.03.027-.027.032-.035.024-.028.029-.039.021-.03.025-.042.018-.032c.008-.014.014-.029.021-.043s.011-.023.016-.035.011-.029.016-.043.009-.026.013-.039.007-.028.011-.042.007-.029.01-.043,0-.029.007-.043,0-.03.006-.045,0,0,0-.006l.452-5.188h4.661c2.763,0,4.009,1.432,5.328,2.947,1.089,1.251,2.3,2.646,4.369,2.986C59.273,100.979,58.849,104.54,58.659,106.1Zm1.03-9.7c-1.34-.273-2.165-1.215-3.163-2.363-1.249-1.435-2.774-3.186-5.7-3.513l.467-5.356a9.934,9.934,0,0,1,8.462,9.812C59.757,95.315,59.732,95.807,59.689,96.4Z" transform="translate(0 -68.867)" fill="#363636"/>
      </g>
    </g>
    <g id="Group_4830" data-name="Group 4830" transform="translate(17.25 103.67)">
      <g id="Group_4829" data-name="Group 4829" transform="translate(0 0)">
        <path id="Path_12772" data-name="Path 12772" d="M146.822,358.524a3.314,3.314,0,1,0,3.314,3.314A3.318,3.318,0,0,0,146.822,358.524Zm0,4.821a1.506,1.506,0,1,1,1.506-1.506A1.508,1.508,0,0,1,146.822,363.345Z" transform="translate(-143.508 -358.524)" fill="#363636"/>
      </g>
    </g>
    <g id="Group_4832" data-name="Group 4832" transform="translate(45.316 103.67)">
      <g id="Group_4831" data-name="Group 4831" transform="translate(0 0)">
        <path id="Path_12773" data-name="Path 12773" d="M380.31,358.524a3.314,3.314,0,1,0,3.314,3.314A3.318,3.318,0,0,0,380.31,358.524Zm0,4.821a1.506,1.506,0,1,1,1.506-1.506A1.508,1.508,0,0,1,380.31,363.345Z" transform="translate(-376.996 -358.524)" fill="#363636"/>
      </g>
    </g>
    <g id="Group_4834" data-name="Group 4834" transform="translate(3.234 83.253)">
      <g id="Group_4833" data-name="Group 4833" transform="translate(0 0)">
        <path id="Path_12774" data-name="Path 12774" d="M32.157,188.527H27.738a.9.9,0,0,0,0,1.808h4.419a.9.9,0,0,0,0-1.808Z" transform="translate(-26.834 -188.527)" fill="#363636"/>
      </g>
    </g>
  </g>
</svg>
