<svg xmlns="http://www.w3.org/2000/svg" width="34.338" height="46.846" viewBox="0 0 34.338 46.846">
  <g id="Group_4835" data-name="Group 4835" transform="translate(-871.872 -8637.168)">
    <g id="previous" transform="translate(871.872 8637.168)">
      <path id="Path_12775" data-name="Path 12775" d="M30.153,77.57c-2.486-3.027-7.17-6.629-15.428-6.938v-5.6a.859.859,0,0,0-1.4-.667L.316,75.085a.864.864,0,0,0-.316.66.847.847,0,0,0,.309.66L13.314,87.17a.859.859,0,0,0,1.4-.667V80.92c5.393.021,13.637.421,18.012,8.139a.858.858,0,0,0,.751.435.773.773,0,0,0,.218-.028.856.856,0,0,0,.639-.829A18.277,18.277,0,0,0,30.153,77.57ZM13.862,79.2h0a.863.863,0,0,0-.864.864v4.614L2.219,75.752l10.786-8.9v4.614a.865.865,0,0,0,.85.864c12.359.119,16.966,7.654,18.307,12.949C26.839,79.207,18.869,79.2,13.862,79.2Z" transform="translate(0 -64.168)" fill="#363636"/>
    </g>
    <g id="previous-2" data-name="previous" transform="translate(906.21 8684.014) rotate(180)">
      <path id="Path_12775-2" data-name="Path 12775" d="M30.153,13.4c-2.486-3.027-7.17-6.629-15.428-6.938V.861a.859.859,0,0,0-1.4-.667L.316,10.917a.864.864,0,0,0-.316.66.847.847,0,0,0,.309.66L13.314,23a.859.859,0,0,0,1.4-.667V16.752c5.393.021,13.637.421,18.012,8.139a.858.858,0,0,0,.751.435A.773.773,0,0,0,33.7,25.3a.856.856,0,0,0,.639-.829A18.277,18.277,0,0,0,30.153,13.4ZM13.862,15.032h0A.863.863,0,0,0,13,15.9v4.614L2.219,11.584l10.786-8.9V7.3a.865.865,0,0,0,.85.864c12.359.119,16.966,7.654,18.307,12.949C26.839,15.039,18.869,15.032,13.862,15.032Z" transform="translate(0 0)" fill="#363636"/>
    </g>
  </g>
</svg>
