<svg xmlns="http://www.w3.org/2000/svg" width="39.339" height="45" viewBox="0 0 39.339 45">
  <g id="support_4_" data-name="support (4)" transform="translate(-26.48)">
    <g id="Group_4836" data-name="Group 4836" transform="translate(26.48)">
      <path id="Path_12776" data-name="Path 12776" d="M61.543,15.393a15.393,15.393,0,0,0-30.787,0,4.643,4.643,0,0,0-4.276,5.046v8.039c0,3.763,2.634,5.131,5.131,5.131h2.48a.855.855,0,0,0,.855-.855V16.2a.855.855,0,0,0-.855-.855H32.466a13.683,13.683,0,1,1,27.366,0H58.207a.855.855,0,0,0-.855.855V32.728a.855.855,0,0,0,.855.855h1.625c-.239,5.875-3.062,7.252-8.7,7.5V40.51a1.71,1.71,0,0,0-1.71-1.71H44.046a1.71,1.71,0,0,0-1.71,1.71V43.29A1.71,1.71,0,0,0,44.046,45h5.4a1.71,1.71,0,0,0,1.71-1.71v-.5c5.422-.248,10.108-1.368,10.391-9.262a4.643,4.643,0,0,0,4.276-5.046V20.448C65.819,17.1,63.749,15.667,61.543,15.393Zm-28.307,1.6v14.88H31.568a3.105,3.105,0,0,1-3.421-3.421V20.413a3.109,3.109,0,0,1,3.421-3.421ZM49.442,42v1.3h-5.4V40.519h5.4ZM64.108,28.478A3.109,3.109,0,0,1,60.688,31.9H59.063V17.052H60.73a3.105,3.105,0,0,1,3.421,3.421Z" transform="translate(-26.48)" fill="#363636"/>
    </g>
  </g>
</svg>
