<svg xmlns="http://www.w3.org/2000/svg" width="41.394" height="41.934" viewBox="0 0 41.394 41.934">
  <g id="shopping-cart_1_" data-name="shopping-cart(1)" transform="translate(-14.1 -11)">
    <g id="Group_139" data-name="Group 139" transform="translate(14.1 11)">
      <path id="Path_178" data-name="Path 178" d="M304.283,417.6a3.511,3.511,0,0,0-3.483,3.569,3.484,3.484,0,1,0,3.483-3.569Zm0,5.349a1.715,1.715,0,0,1-1.694-1.789,1.7,1.7,0,1,1,1.694,1.789Z" transform="translate(-276.264 -382.804)"/>
      <path id="Path_179" data-name="Path 179" d="M82.183,417.6a3.511,3.511,0,0,0-3.483,3.569,3.566,3.566,0,0,0,3.483,3.569,3.511,3.511,0,0,0,3.483-3.569A3.566,3.566,0,0,0,82.183,417.6Zm0,5.349a1.715,1.715,0,0,1-1.694-1.789,1.776,1.776,0,0,1,1.694-1.789,1.715,1.715,0,0,1,1.694,1.789A1.765,1.765,0,0,1,82.183,422.949Z" transform="translate(-73.172 -382.804)"/>
      <path id="Path_180" data-name="Path 180" d="M50.505,11l-1.386,5.443H14.1l6.461,19.144a4.438,4.438,0,0,0-3.783,4.5,4.514,4.514,0,0,0,4.459,4.638h24.27V43.032H21.237a2.732,2.732,0,0,1-2.679-2.858,2.786,2.786,0,0,1,2.679-2.858H45.593L51.926,12.78h3.569V11H50.505ZM44.258,35.535H22.4L16.6,18.223H48.631Z" transform="translate(-14.1 -11)"/>
      <rect id="Rectangle_139" data-name="Rectangle 139" width="1.789" height="10.081" transform="translate(11.331 11.416)"/>
      <rect id="Rectangle_140" data-name="Rectangle 140" width="1.789" height="10.081" transform="translate(17.672 11.416)"/>
      <rect id="Rectangle_141" data-name="Rectangle 141" width="1.789" height="10.081" transform="translate(24.005 11.416)"/>
    </g>
  </g>
</svg>
