<svg xmlns="http://www.w3.org/2000/svg" width="39.699" height="45" viewBox="0 0 39.699 45">
  <g id="XMLID_1220_" transform="translate(-30.16)">
    <g id="XMLID_339_" transform="translate(30.16 0)">
      <path id="XMLID_349_" d="M69.741,39.7,63.132,28.248a1.765,1.765,0,0,1,.937-.57,3.526,3.526,0,0,0,2.379-4.94,1.764,1.764,0,0,1,.486-2.131,3.526,3.526,0,0,0,0-5.483,1.764,1.764,0,0,1-.486-2.131,3.527,3.527,0,0,0-2.379-4.94,1.764,1.764,0,0,1-1.363-1.709,3.526,3.526,0,0,0-4.287-3.419,1.764,1.764,0,0,1-1.97-.949A3.527,3.527,0,0,0,51.1.755a1.764,1.764,0,0,1-2.186,0,3.526,3.526,0,0,0-5.346,1.22,1.764,1.764,0,0,1-1.97.949,3.526,3.526,0,0,0-4.287,3.419,1.764,1.764,0,0,1-1.363,1.709,3.526,3.526,0,0,0-2.379,4.94,1.764,1.764,0,0,1-.486,2.131,3.526,3.526,0,0,0,0,5.483,1.764,1.764,0,0,1,.486,2.131,3.527,3.527,0,0,0,2.379,4.94,1.764,1.764,0,0,1,.937.57L30.278,39.7a.879.879,0,0,0,.991,1.288l4.6-1.249,1.22,4.611a.879.879,0,0,0,1.611.215l5.64-9.768a3.527,3.527,0,0,0,4.574.183,1.764,1.764,0,0,1,2.186,0,3.51,3.51,0,0,0,2.174.755,3.539,3.539,0,0,0,2.4-.938l5.64,9.768a.879.879,0,0,0,1.611-.215l1.22-4.611,4.6,1.249a.879.879,0,0,0,.991-1.288Zm-31.494,2.14-.9-3.406a.879.879,0,0,0-1.08-.623l-3.4.922,4.68-8.107A3.527,3.527,0,0,0,41.6,32.806a1.764,1.764,0,0,1,1.6.446Zm15.429-7.909a1.762,1.762,0,0,1-1.487-.334,3.517,3.517,0,0,0-4.359,0,1.769,1.769,0,0,1-2.681-.612,3.517,3.517,0,0,0-3.927-1.891,1.769,1.769,0,0,1-2.15-1.715,3.517,3.517,0,0,0-2.718-3.408,1.769,1.769,0,0,1-1.193-2.478,3.517,3.517,0,0,0-.97-4.249,1.769,1.769,0,0,1,0-2.75,3.517,3.517,0,0,0,.97-4.25,1.769,1.769,0,0,1,1.193-2.478,3.517,3.517,0,0,0,2.718-3.408,1.769,1.769,0,0,1,2.15-1.715,3.518,3.518,0,0,0,3.927-1.891,1.769,1.769,0,0,1,2.681-.612,3.517,3.517,0,0,0,4.359,0,1.769,1.769,0,0,1,2.681.612A3.518,3.518,0,0,0,58.8,4.64a1.769,1.769,0,0,1,2.15,1.715,3.517,3.517,0,0,0,2.718,3.408,1.769,1.769,0,0,1,1.193,2.478,3.517,3.517,0,0,0,.97,4.249,1.769,1.769,0,0,1,0,2.75,3.517,3.517,0,0,0-.97,4.25,1.769,1.769,0,0,1-1.193,2.478,3.517,3.517,0,0,0-2.718,3.408A1.769,1.769,0,0,1,58.8,31.09a3.517,3.517,0,0,0-3.927,1.891A1.761,1.761,0,0,1,53.676,33.927Zm10.078,3.88a.879.879,0,0,0-1.08.623l-.9,3.406-4.955-8.583a1.763,1.763,0,0,1,1.6-.446,3.527,3.527,0,0,0,4.055-2.184l4.68,8.107Z" transform="translate(-30.16 0)"/>
      <path id="XMLID_357_" d="M180.972,127.24a.888.888,0,0,0,.845-1.159l-1.4-4.35,3.69-2.711a.888.888,0,0,0-.526-1.6h-4.566l-1.424-4.339a.888.888,0,0,0-1.687,0l-1.424,4.339h-4.566a.888.888,0,0,0-.526,1.6l3.69,2.711-1.4,4.35a.888.888,0,0,0,1.365.991l3.7-2.674,3.7,2.674A.885.885,0,0,0,180.972,127.24Zm-3.7-4.657a.888.888,0,0,0-1.039,0l-2.03,1.466.767-2.384a.888.888,0,0,0-.319-.987l-2.023-1.487h2.5a.888.888,0,0,0,.843-.611l.781-2.38.781,2.38a.888.888,0,0,0,.843.611h2.5l-2.023,1.487a.888.888,0,0,0-.319.987l.767,2.384Z" transform="translate(-156.899 -102.63)"/>
      <path id="XMLID_358_" d="M140.466,75.7a12.23,12.23,0,1,0-16.4,11.686.87.87,0,0,0,1.119-.532.892.892,0,0,0-.523-1.137,10.483,10.483,0,1,1,7.148,0,.892.892,0,0,0-.523,1.137.875.875,0,0,0,.821.585.86.86,0,0,0,.3-.053A12.457,12.457,0,0,0,140.466,75.7Z" transform="translate(-108.388 -57.655)"/>
      <path id="XMLID_676_" d="M246.9,323.27a.888.888,0,1,0,.628.26A.894.894,0,0,0,246.9,323.27Z" transform="translate(-227.046 -294.87)"/>
    </g>
  </g>
</svg>
